<?xml version="1.0" standalone="no"?>
<!DOCTYPE svg PUBLIC "-//W3C//DTD SVG 20010904//EN"
 "http://www.w3.org/TR/2001/REC-SVG-20010904/DTD/svg10.dtd">
<svg version="1.0" xmlns="http://www.w3.org/2000/svg"
 width="16.000000pt" height="16.000000pt" viewBox="0 0 16.000000 16.000000"
 preserveAspectRatio="xMidYMid meet">
<metadata>
Created by potrace 1.16, written by Peter Selinger 2001-2019
</metadata>
<g transform="translate(0.000000,16.000000) scale(0.000679,-0.000679)"
fill="#000000" stroke="none">
<path d="M13203 18750 c-6 -7 -42 -16 -80 -20 -95 -12 -120 -18 -164 -40 -21
-11 -47 -20 -57 -20 -11 0 -25 -7 -32 -15 -7 -8 -18 -15 -24 -15 -6 0 -39 -27
-74 -60 -34 -33 -70 -60 -78 -60 -17 0 -104 -84 -104 -100 0 -6 -6 -10 -13
-10 -15 0 -87 -71 -87 -86 0 -6 -11 -21 -25 -34 -14 -13 -25 -31 -25 -40 0
-19 -49 -99 -73 -119 -11 -8 -17 -29 -17 -55 0 -22 -10 -61 -21 -86 -12 -28
-23 -77 -26 -127 -3 -46 -10 -83 -14 -83 -5 0 -16 -11 -24 -24 -15 -22 -15
-28 0 -73 15 -47 15 -50 -14 -132 -23 -66 -27 -88 -19 -107 7 -16 7 -32 -1
-55 -6 -17 -11 -48 -11 -67 0 -19 -6 -58 -14 -86 -16 -57 -33 -142 -45 -226
-4 -30 -19 -79 -33 -108 -25 -50 -26 -55 -12 -88 13 -30 13 -38 -1 -64 -8 -16
-15 -48 -15 -72 0 -24 -7 -52 -15 -62 -10 -13 -15 -43 -15 -85 0 -49 -5 -74
-20 -96 -14 -21 -20 -47 -20 -86 0 -41 -5 -63 -20 -82 -21 -26 -27 -76 -11
-93 6 -5 2 -24 -10 -48 -10 -22 -19 -58 -19 -80 -1 -23 -7 -52 -15 -66 -8 -14
-14 -35 -15 -48 0 -13 -7 -30 -15 -38 -8 -9 -22 -41 -30 -72 -9 -31 -20 -65
-25 -74 -6 -10 -10 -28 -10 -40 0 -13 -11 -43 -25 -67 -14 -23 -25 -57 -25
-73 0 -30 -33 -88 -50 -88 -16 0 -68 57 -88 96 -14 29 -21 68 -24 152 -3 61
-10 118 -16 125 -5 6 -13 41 -16 77 -8 84 -8 87 -1 140 6 36 4 49 -9 59 -13
11 -16 33 -16 107 0 67 -4 95 -13 101 -8 4 -26 35 -41 68 -16 33 -34 71 -42
85 -16 31 -55 111 -100 208 -20 42 -34 88 -34 110 0 29 -7 45 -30 67 -16 15
-41 53 -56 84 -83 176 -150 296 -165 296 -20 0 -23 -39 -4 -55 9 -7 15 -29 15
-54 0 -22 12 -72 26 -111 14 -38 28 -88 31 -110 2 -22 13 -58 23 -80 10 -22
26 -67 35 -100 9 -33 23 -78 30 -100 8 -22 16 -56 20 -75 3 -19 10 -44 14 -55
24 -60 34 -95 41 -141 4 -28 13 -61 19 -72 6 -11 11 -38 11 -59 1 -21 7 -49
15 -63 9 -16 14 -55 15 -108 0 -59 5 -92 17 -115 11 -20 20 -69 25 -127 13
-160 23 -213 52 -275 15 -33 38 -92 51 -131 34 -102 56 -132 199 -277 89 -90
135 -145 152 -181 13 -28 24 -55 25 -61 0 -5 16 -30 35 -55 40 -53 94 -156 94
-181 0 -10 6 -30 14 -46 33 -67 46 -106 46 -141 0 -20 7 -50 15 -66 8 -15 15
-34 15 -42 0 -24 46 -68 63 -61 21 8 22 71 2 107 -10 17 -15 58 -15 130 0 72
-5 113 -15 130 -8 14 -14 43 -15 66 0 31 -7 46 -30 69 -16 16 -30 36 -30 45 0
8 -16 40 -35 70 -19 30 -35 62 -35 71 0 9 -8 27 -19 40 -10 13 -21 34 -25 46
-9 27 -69 129 -91 153 -8 9 -15 22 -15 28 0 6 -11 24 -25 40 -59 71 -56 92 50
287 15 28 34 64 43 80 8 17 23 40 33 53 9 12 20 42 24 65 4 23 19 60 35 82 15
22 37 63 49 90 12 28 33 70 46 95 13 25 28 72 34 104 6 33 18 70 26 82 8 13
15 36 15 51 0 41 21 185 30 208 22 55 29 86 34 152 2 40 10 81 15 92 6 11 11
42 11 69 0 27 7 66 15 85 8 20 15 60 15 90 0 31 6 61 15 73 9 12 14 43 15 87
0 38 5 78 12 90 11 21 19 54 37 162 5 28 16 70 25 95 9 25 16 54 16 64 0 11 7
27 15 36 8 9 22 43 30 74 8 32 23 79 34 104 32 82 43 116 49 147 2 17 11 39
18 50 8 11 14 36 14 55 0 20 7 45 15 56 8 10 15 26 15 34 0 9 16 31 36 50 20
18 47 51 60 72 27 42 85 85 319 238 26 17 47 20 150 20 85 -1 127 -5 145 -15
14 -8 49 -14 78 -15 38 0 61 -6 78 -19 17 -14 35 -18 57 -15 25 4 61 -9 174
-65 78 -39 147 -71 153 -71 5 0 10 -4 10 -10 0 -5 6 -10 13 -10 22 0 204 -98
256 -138 20 -16 52 -38 73 -50 20 -13 38 -28 41 -36 3 -7 29 -29 59 -48 29
-20 62 -45 72 -57 11 -12 27 -21 36 -21 9 0 31 -16 50 -35 19 -19 40 -35 47
-35 7 0 40 -25 74 -55 34 -30 67 -55 73 -55 7 0 28 -16 47 -36 18 -20 52 -45
74 -56 22 -12 63 -40 91 -63 28 -23 112 -72 185 -109 74 -36 141 -70 149 -75
8 -5 40 -21 70 -35 30 -15 73 -38 95 -51 22 -13 56 -27 77 -30 20 -4 42 -13
48 -21 7 -7 24 -20 39 -27 26 -13 35 -18 98 -51 23 -12 53 -16 108 -14 64 1
80 -2 105 -20 34 -25 50 -27 97 -10 30 11 39 10 76 -10 55 -29 97 -30 97 -2 0
11 -8 23 -17 26 -10 3 -25 10 -33 15 -48 31 -91 43 -145 44 -41 0 -75 8 -106
23 -25 12 -60 22 -78 22 -49 0 -109 35 -128 75 -17 36 -27 42 -38 25 -12 -19
-35 -10 -78 28 -23 21 -63 46 -89 56 -26 10 -50 22 -53 27 -4 5 -14 9 -23 9
-9 0 -37 16 -62 35 -25 19 -66 50 -91 68 -46 31 -81 60 -177 141 -26 21 -60
45 -77 52 -39 16 -62 42 -67 74 -3 22 -8 25 -50 26 -50 1 -73 14 -83 45 -4 11
-19 22 -36 26 -16 3 -53 26 -83 52 -30 25 -73 60 -96 76 -23 17 -58 42 -79 58
-20 15 -53 36 -73 47 -20 11 -52 35 -70 53 -18 18 -51 42 -73 52 -22 10 -61
39 -88 64 -26 25 -68 58 -93 74 -25 15 -53 41 -62 57 -10 17 -31 33 -52 39
-21 7 -43 24 -55 43 -23 36 -28 39 -110 64 -33 9 -64 21 -69 26 -6 4 -20 8
-33 8 -28 0 -137 44 -173 70 -21 15 -34 17 -70 10 -49 -9 -135 -7 -190 4 -23
5 -39 3 -47 -4z"/>
<path d="M9820 18283 c-14 -3 -29 -9 -34 -14 -6 -5 -25 -9 -44 -9 -19 0 -51
-10 -70 -22 -33 -20 -76 -32 -166 -45 -22 -3 -60 -18 -84 -34 -25 -16 -55 -29
-65 -29 -11 0 -37 -15 -58 -32 -62 -53 -96 -78 -108 -78 -21 0 -130 -59 -163
-89 -35 -30 -145 -81 -176 -81 -10 0 -32 -11 -48 -25 -16 -14 -38 -25 -49 -25
-12 0 -25 -4 -30 -9 -14 -13 -222 -81 -250 -81 -12 0 -32 -11 -45 -25 -21 -22
-29 -24 -106 -22 -64 2 -87 7 -103 21 -19 18 -21 18 -47 -3 -37 -29 -150 -30
-185 -2 -23 19 -24 19 -63 -1 -33 -17 -51 -19 -120 -14 -45 4 -101 6 -126 5
-25 -1 -63 -1 -85 -1 -22 0 -56 1 -76 1 -22 0 -42 8 -54 21 -19 21 -50 27 -60
10 -11 -18 -133 -12 -174 10 -39 19 -39 19 -64 0 -26 -21 -86 -27 -103 -11
-19 19 -125 40 -151 30 -13 -5 -69 -9 -125 -9 -71 0 -110 -5 -134 -16 -33 -16
-103 -15 -166 1 -22 6 -34 2 -58 -19 -18 -14 -42 -26 -55 -26 -30 0 -92 -39
-101 -63 -3 -10 -16 -23 -29 -29 -12 -6 -35 -35 -50 -65 -21 -40 -38 -59 -64
-71 -20 -10 -42 -30 -50 -47 -8 -17 -22 -35 -31 -42 -22 -15 -75 -99 -85 -133
-4 -14 -12 -31 -18 -39 -15 -17 -37 -78 -44 -116 -3 -16 -12 -39 -19 -50 -7
-11 -15 -31 -17 -45 -9 -45 -26 -79 -47 -92 -20 -13 -20 -21 -20 -498 0 -467
1 -486 20 -518 11 -18 20 -48 20 -67 0 -22 17 -70 45 -125 26 -52 45 -103 45
-123 0 -18 14 -59 30 -90 17 -32 30 -72 30 -88 0 -16 14 -60 32 -97 17 -37 35
-87 39 -112 23 -129 27 -143 51 -163 14 -12 44 -60 67 -105 24 -46 56 -97 72
-114 32 -34 34 -45 17 -83 -11 -24 -9 -29 12 -45 23 -18 25 -27 33 -147 4 -70
7 -152 7 -181 -1 -30 3 -59 8 -65 15 -18 31 -168 39 -354 3 -72 9 -105 19
-114 8 -6 14 -21 14 -32 0 -11 5 -35 12 -53 9 -26 9 -41 -1 -72 -12 -35 -11
-44 11 -93 17 -38 25 -74 26 -121 1 -37 6 -78 12 -93 5 -14 10 -56 10 -92 0
-48 5 -72 19 -91 10 -15 21 -49 25 -77 15 -130 20 -151 41 -180 13 -16 26 -48
30 -70 4 -22 20 -53 35 -70 15 -16 30 -42 34 -58 4 -15 22 -44 40 -65 33 -37
86 -131 86 -153 0 -6 18 -38 40 -71 23 -34 40 -72 40 -88 0 -33 27 -47 49 -26
12 12 12 20 3 41 -7 14 -12 36 -12 48 0 12 -11 39 -25 59 -14 21 -28 52 -31
70 -3 18 -19 60 -34 93 -15 33 -30 71 -33 85 -3 14 -11 43 -17 65 -10 35 -22
82 -46 190 -4 17 -15 42 -25 57 -11 14 -19 36 -19 47 0 12 -4 29 -9 39 -16 32
-29 67 -35 92 -2 14 -10 43 -16 65 -19 65 -31 126 -39 198 -5 38 -13 73 -20
80 -7 7 -11 59 -11 147 -1 103 -4 140 -15 154 -11 15 -15 51 -15 148 0 92 -4
139 -15 165 -10 24 -15 71 -15 150 0 72 -5 122 -12 136 -7 12 -16 54 -20 92
-4 39 -12 95 -17 125 -6 30 -13 73 -17 95 -3 22 -12 54 -20 72 -8 17 -14 43
-14 57 0 15 -7 43 -15 63 -8 19 -15 48 -15 63 0 15 -12 45 -26 66 -15 21 -31
52 -37 69 -11 35 -54 133 -68 155 -26 42 -69 137 -69 153 0 11 -9 30 -20 44
-11 14 -22 40 -26 59 -3 18 -12 38 -20 45 -8 6 -14 19 -14 28 0 10 -11 28 -25
41 -14 13 -25 31 -25 41 0 9 -6 22 -14 28 -7 6 -16 24 -19 39 -3 15 -31 74
-62 132 l-55 105 0 105 c0 83 -5 114 -20 149 -26 57 -28 219 -4 277 16 37 25
87 42 216 4 31 15 65 24 75 9 10 18 38 21 63 4 43 14 77 44 147 7 17 13 35 13
39 0 15 73 149 96 176 12 16 26 37 29 48 5 17 65 64 137 106 10 6 29 20 41 30
12 11 42 30 67 43 25 13 54 32 66 42 11 11 27 19 35 19 8 0 44 11 79 25 35 14
72 23 81 20 10 -3 42 1 72 10 31 9 75 16 99 15 23 0 119 1 211 4 93 2 183 0
200 -5 18 -5 93 -12 167 -15 95 -4 155 -11 203 -26 65 -20 84 -21 431 -15 315
5 368 8 402 23 21 9 75 21 119 26 197 21 236 27 250 38 6 5 36 13 67 19 32 5
71 17 87 26 17 8 37 15 45 15 8 0 27 7 43 15 15 8 46 22 68 31 49 19 50 20
119 67 30 21 58 42 61 47 3 6 13 10 22 10 9 0 37 19 64 43 71 63 100 83 143
97 42 14 83 36 160 87 31 21 60 33 82 33 19 0 52 9 74 20 57 29 225 29 272 0
23 -14 51 -20 92 -20 46 0 75 -7 125 -31 82 -39 79 -37 131 -77 24 -18 55 -35
69 -39 14 -3 43 -21 64 -39 20 -19 46 -34 56 -34 10 0 21 -7 25 -15 3 -8 17
-20 30 -25 16 -6 35 -29 52 -62 14 -29 50 -78 79 -108 29 -31 59 -69 68 -85 8
-17 31 -45 51 -64 30 -29 38 -32 51 -21 8 7 15 20 15 29 0 25 -67 180 -94 220
-14 20 -27 50 -30 66 -3 19 -22 44 -51 70 -25 22 -45 46 -45 53 0 6 -3 12 -7
12 -5 0 -16 14 -25 30 -13 23 -24 30 -47 30 -21 0 -35 8 -50 29 -12 16 -21 33
-21 38 0 14 -34 43 -49 43 -18 0 -99 70 -104 91 -3 12 -14 19 -29 19 -12 1
-34 7 -48 15 -18 10 -59 14 -141 15 -91 0 -119 3 -129 15 -10 12 -38 15 -144
14 -72 -1 -142 -4 -156 -6z"/>
<path d="M17116 17383 c-11 -3 -36 -16 -55 -28 -20 -13 -58 -27 -86 -31 -27
-3 -54 -10 -60 -13 -14 -10 -82 -29 -129 -36 -22 -4 -54 -17 -71 -31 -18 -13
-52 -27 -78 -30 -47 -7 -106 -52 -93 -72 3 -5 51 -12 107 -15 89 -6 106 -4
140 14 37 18 55 19 297 15 226 -3 427 -17 457 -31 64 -31 103 -78 104 -126 1
-15 8 -44 17 -65 13 -30 15 -59 11 -128 -3 -49 -11 -94 -16 -99 -6 -6 -11 -23
-11 -38 0 -15 -4 -31 -10 -34 -5 -3 -10 -24 -10 -46 0 -22 -5 -49 -11 -60 -5
-11 -11 -44 -13 -73 -2 -29 -10 -68 -20 -86 -9 -18 -16 -49 -16 -69 -1 -20 -7
-47 -15 -61 -8 -14 -14 -44 -15 -68 0 -25 -6 -50 -15 -58 -13 -13 -15 -59 -15
-282 -1 -213 -4 -272 -15 -292 -11 -20 -14 -77 -15 -272 0 -242 0 -247 -25
-295 -13 -26 -38 -90 -54 -140 -17 -51 -37 -106 -46 -122 -8 -17 -15 -38 -15
-48 0 -10 -7 -31 -16 -48 -33 -63 -46 -120 -47 -215 -2 -72 -6 -103 -20 -123
-22 -34 -26 -227 -4 -227 22 0 42 28 101 147 31 62 60 114 65 118 5 3 12 22
16 43 6 38 63 112 86 112 7 0 9 10 6 30 -6 26 23 119 44 143 3 5 4 46 2 92 -5
66 -2 87 11 106 12 18 16 47 16 117 0 79 3 97 21 122 20 26 21 32 9 72 -21 73
-23 113 -6 151 8 20 19 37 24 37 5 0 9 47 10 105 1 58 6 113 11 123 15 28 25
116 21 182 -3 57 28 154 76 240 10 18 12 41 8 78 -6 45 -3 58 19 90 16 24 27
60 32 100 4 38 15 72 27 88 18 22 20 38 19 124 -1 70 3 109 14 136 14 33 14
39 0 54 -20 22 -20 158 -1 203 11 28 11 36 0 52 -8 10 -14 25 -14 33 0 8 -9
25 -20 39 -11 14 -20 38 -20 54 0 15 -4 31 -10 34 -5 3 -10 20 -10 36 0 17 -9
51 -19 77 -11 26 -22 55 -25 64 -3 11 -20 20 -47 24 -22 4 -53 17 -68 30 -15
12 -44 25 -64 29 -20 4 -40 11 -43 16 -3 5 -17 9 -32 9 -14 0 -45 7 -69 16
-38 15 -46 15 -89 0 -59 -20 -133 -21 -170 -1 -30 15 -36 16 -68 8z"/>
<path d="M10606 16501 c-3 -4 -32 -11 -63 -15 -32 -4 -71 -13 -87 -21 -15 -8
-40 -15 -55 -15 -15 0 -56 -20 -93 -45 -37 -25 -71 -45 -76 -45 -5 0 -19 -12
-33 -26 -13 -14 -55 -42 -94 -61 -38 -20 -95 -57 -125 -83 -30 -26 -65 -50
-78 -54 -34 -11 -67 -62 -97 -151 -15 -44 -30 -84 -35 -90 -34 -46 -1 -105 60
-105 21 0 42 5 45 10 3 6 21 10 39 10 27 0 47 14 129 96 54 53 112 104 130
113 18 9 57 43 87 75 30 32 67 70 81 85 42 43 99 85 127 95 15 5 46 22 69 37
23 16 46 29 51 29 5 0 29 11 53 24 40 22 59 24 230 30 103 3 194 8 203 12 42
16 2 64 -54 64 -21 0 -41 4 -44 8 -3 5 -42 9 -88 11 -45 1 -87 6 -92 11 -12
12 -183 13 -190 1z"/>
<path d="M13570 16265 c-21 -8 -77 -14 -137 -14 -83 -1 -109 -5 -138 -21 -20
-11 -51 -20 -71 -20 -40 0 -100 -28 -129 -60 -11 -12 -47 -35 -82 -52 -34 -16
-67 -36 -74 -44 -7 -9 -29 -24 -49 -34 -20 -10 -44 -29 -52 -42 -21 -32 -20
-108 1 -136 l17 -23 69 32 c39 17 88 44 110 59 22 15 51 31 65 35 48 15 159
76 172 93 18 26 99 45 133 32 14 -6 57 -10 94 -10 38 0 88 -7 111 -15 23 -8
55 -15 71 -15 15 0 31 -4 34 -10 3 -5 23 -10 43 -10 20 0 59 -9 87 -19 57 -22
135 -44 215 -62 30 -6 60 -16 67 -21 7 -5 55 -7 110 -4 122 6 120 6 224 0 79
-5 90 -3 132 20 25 14 51 26 58 26 7 0 20 6 28 14 9 7 41 21 71 32 30 10 62
24 71 31 8 7 29 16 47 19 17 3 38 14 46 23 14 16 33 74 43 136 8 54 -53 86
-117 61 -14 -5 -61 -13 -105 -17 -44 -3 -98 -12 -120 -19 -22 -7 -65 -14 -95
-17 -30 -2 -66 -9 -79 -16 -14 -7 -64 -12 -115 -12 -75 0 -98 4 -131 22 -28
16 -63 24 -120 28 -131 8 -286 23 -350 33 -81 14 -113 13 -155 -3z"/>
<path d="M15799 15974 c-7 -8 -26 -22 -43 -31 -17 -8 -48 -31 -68 -51 l-38
-36 0 -85 c0 -70 4 -95 24 -136 13 -27 32 -66 41 -85 9 -19 38 -75 65 -125 46
-86 51 -91 112 -121 34 -18 113 -48 175 -68 107 -34 207 -78 219 -97 3 -5 22
-9 42 -9 20 0 50 -7 66 -15 15 -8 37 -15 48 -15 11 0 45 -25 76 -56 31 -30 70
-61 88 -69 54 -22 102 -81 150 -183 83 -177 96 -200 110 -206 27 -10 29 23 9
189 -4 28 -19 77 -34 110 -16 33 -31 71 -36 83 -4 13 -20 43 -36 67 -16 24
-29 48 -29 54 0 40 -98 161 -131 161 -9 0 -30 13 -45 29 -16 16 -67 48 -114
71 -47 23 -92 49 -101 57 -10 8 -61 37 -115 64 -54 28 -107 57 -116 66 -10 9
-42 28 -71 42 -54 28 -97 83 -97 129 0 12 -4 30 -9 40 -12 20 -51 138 -51 151
0 17 -53 91 -66 91 -6 0 -17 -7 -25 -16z"/>
<path d="M7726 15785 c-11 -8 -28 -15 -38 -15 -10 0 -47 -13 -81 -30 -35 -16
-71 -30 -79 -30 -8 0 -36 -11 -62 -25 -26 -14 -74 -34 -107 -45 -32 -11 -73
-29 -91 -40 -18 -11 -42 -20 -53 -20 -11 0 -29 -7 -39 -15 -11 -8 -27 -15 -36
-15 -9 0 -25 -9 -35 -20 -10 -11 -26 -20 -35 -20 -19 0 -90 -72 -90 -91 0 -6
-13 -27 -30 -46 -16 -18 -30 -40 -30 -47 0 -7 -13 -30 -30 -51 -27 -34 -30
-45 -30 -106 0 -44 -7 -83 -19 -113 -17 -37 -18 -50 -8 -75 19 -52 31 -43 94
74 18 33 42 78 53 100 11 22 44 67 72 101 29 34 60 72 68 85 39 61 130 119
187 119 13 0 36 6 51 14 41 20 172 64 217 71 22 4 45 10 50 15 6 4 28 10 50
13 22 4 76 11 119 18 68 10 86 9 131 -5 34 -10 88 -16 156 -16 76 -1 109 -5
123 -15 15 -12 53 -15 170 -15 144 0 154 1 201 26 83 44 86 48 102 157 4 28 1
43 -12 57 -17 19 -34 20 -469 20 -381 -1 -454 -3 -470 -15z"/>
<path d="M10214 15620 c-28 -11 -73 -66 -80 -98 -4 -15 -23 -45 -44 -67 -49
-52 -90 -134 -90 -182 -1 -21 -7 -49 -15 -63 -22 -38 -18 -85 8 -115 l23 -27
79 40 c161 82 176 85 417 91 l216 6 65 63 c36 34 70 62 75 62 5 0 40 28 76 61
49 46 66 68 66 88 0 14 -4 31 -8 36 -16 22 -72 54 -106 60 -20 4 -39 11 -42
16 -3 5 -20 9 -37 9 -18 0 -41 7 -51 15 -16 12 -65 15 -275 14 -141 0 -265 -4
-277 -9z"/>
<path d="M13047 15516 c-3 -7 -9 -50 -13 -95 -8 -102 7 -138 70 -164 23 -9 48
-17 56 -18 8 0 35 -16 60 -34 25 -19 72 -48 105 -65 33 -18 74 -45 90 -61 l31
-29 176 0 c147 0 183 3 224 19 156 59 214 70 258 47 17 -8 42 -25 56 -35 21
-17 34 -19 80 -13 42 5 56 11 58 26 5 22 -48 80 -98 107 -19 11 -57 35 -84 55
-36 26 -55 34 -72 30 -13 -3 -36 -9 -51 -12 -16 -3 -41 -11 -58 -19 -92 -39
-171 -58 -245 -57 -170 2 -208 12 -229 58 -5 13 -30 31 -54 42 -24 10 -67 40
-95 65 -29 26 -65 53 -80 61 -15 8 -38 26 -51 40 -14 14 -32 26 -41 26 -9 0
-25 9 -35 20 -21 23 -50 26 -58 6z"/>
<path d="M9697 15373 c-4 -3 -7 -92 -7 -196 0 -210 3 -221 87 -367 17 -30 37
-75 43 -100 7 -25 15 -49 19 -55 4 -5 13 -29 21 -52 7 -24 21 -50 32 -59 10
-10 18 -23 18 -30 0 -50 109 -180 183 -219 40 -21 130 -108 153 -146 7 -13 30
-58 50 -99 20 -41 47 -86 59 -100 22 -23 24 -35 27 -150 2 -100 -1 -131 -14
-155 -9 -16 -30 -59 -46 -95 -24 -52 -52 -86 -141 -173 -136 -133 -160 -182
-69 -140 24 11 54 24 68 28 38 11 164 78 173 92 4 7 24 30 43 50 19 21 48 66
64 100 16 34 34 64 40 68 5 3 10 16 10 29 0 12 14 41 31 64 29 40 30 44 27
137 -1 53 -6 99 -10 101 -5 3 -8 18 -8 33 0 16 -22 73 -49 128 -38 76 -62 110
-104 148 -68 62 -163 136 -197 153 -14 7 -41 28 -60 46 -19 19 -48 40 -65 47
-28 13 -75 87 -120 189 -9 19 -21 44 -27 55 -57 98 -78 139 -89 172 -8 21 -25
55 -38 77 -21 31 -26 56 -31 135 -4 60 -13 108 -23 128 -11 21 -17 55 -17 98
0 47 -4 65 -13 65 -8 0 -17 -3 -20 -7z"/>
<path d="M15360 15224 c-36 -24 -69 -44 -74 -44 -5 0 -26 -16 -47 -35 -22 -19
-46 -35 -54 -35 -22 0 -85 -66 -85 -88 0 -11 -6 -25 -13 -31 -8 -6 -22 -30
-32 -53 -42 -100 -68 -153 -86 -176 -10 -14 -19 -35 -19 -47 0 -12 -9 -34 -20
-48 -11 -14 -20 -39 -20 -56 0 -18 -7 -48 -15 -68 -8 -19 -15 -56 -15 -82 -1
-25 -7 -57 -15 -71 -11 -20 -14 -81 -15 -306 0 -251 2 -288 19 -342 11 -33 24
-68 30 -78 18 -33 51 -139 51 -165 0 -13 12 -56 26 -94 39 -103 39 -105 3
-211 -36 -107 -88 -179 -138 -190 -43 -10 -155 -45 -173 -55 -10 -5 -27 -9
-38 -9 -33 0 -90 -38 -90 -59 0 -24 45 -31 201 -30 115 1 170 6 189 16 30 15
22 17 145 -37 72 -32 114 -35 153 -11 53 34 39 75 -54 152 -60 50 -77 80 -54
94 6 3 10 19 10 34 0 15 6 33 12 39 19 19 11 321 -8 369 -10 23 -13 49 -9 75
5 28 3 44 -8 56 -8 9 -17 37 -20 62 -3 25 -13 79 -23 120 -10 41 -17 92 -16
113 2 51 2 54 -4 297 -3 169 -2 222 9 250 26 63 36 104 43 170 4 36 15 82 25
102 11 21 19 51 19 68 0 17 7 47 15 67 8 19 15 43 15 53 0 17 111 130 128 130
5 0 44 35 86 78 52 52 76 83 74 97 -5 33 -39 26 -108 -21z"/>
<path d="M8772 15188 c-17 -17 16 -77 75 -135 53 -53 111 -83 158 -83 12 0 28
-7 35 -15 7 -8 18 -15 24 -15 7 0 29 -9 51 -20 48 -24 71 -25 79 -3 5 11 -5
28 -28 52 -18 20 -43 55 -55 78 -22 45 -77 93 -105 93 -9 0 -29 6 -44 14 -16
8 -48 17 -72 21 -25 3 -59 10 -77 14 -19 6 -35 5 -41 -1z"/>
<path d="M8124 15091 c-18 -11 -35 -24 -38 -30 -4 -6 -14 -11 -23 -11 -9 0
-38 -20 -64 -45 -26 -25 -54 -45 -62 -45 -7 0 -31 -18 -52 -41 -22 -22 -61
-54 -87 -70 -26 -17 -57 -47 -69 -67 -37 -61 -129 -245 -129 -258 0 -7 -6 -19
-13 -26 -27 -26 -48 -86 -45 -124 l3 -39 128 -3 c137 -3 135 -3 266 61 45 23
71 43 88 70 13 21 40 45 61 55 20 9 45 27 56 40 10 12 45 37 78 55 73 39 92
49 109 64 8 6 33 14 56 18 24 4 59 18 78 31 33 22 46 24 146 24 111 0 149 9
149 34 0 26 -81 155 -118 187 -20 17 -54 40 -76 50 -23 10 -57 34 -75 53 l-35
36 -150 0 c-131 0 -155 -3 -182 -19z"/>
<path d="M10884 15080 c-6 -6 -38 -14 -70 -17 -32 -3 -69 -11 -80 -19 -14 -8
-67 -14 -150 -17 -82 -2 -142 -9 -165 -18 -49 -20 -106 -65 -114 -89 -8 -25 4
-41 62 -80 37 -25 54 -30 103 -30 42 0 69 6 92 20 18 11 49 20 69 20 19 0 44
7 55 15 10 8 26 15 35 15 27 0 124 48 145 71 10 12 32 28 47 36 25 12 28 19
25 56 -2 33 -7 43 -23 45 -11 1 -25 -2 -31 -8z"/>
<path d="M12805 15053 c-16 -3 -34 -9 -39 -14 -6 -5 -18 -9 -28 -9 -40 0 -160
-72 -215 -128 -52 -53 -123 -176 -123 -213 0 -8 -4 -19 -9 -24 -4 -6 -13 -25
-19 -43 -10 -30 -8 -41 22 -104 48 -97 60 -108 115 -108 61 1 123 15 132 32 4
7 22 29 39 48 36 40 70 104 70 134 0 12 9 41 20 65 11 24 20 52 20 62 0 34 73
160 102 175 33 17 70 77 66 106 -3 21 -9 23 -63 24 -33 1 -73 -1 -90 -3z"/>
<path d="M15395 14671 l-80 -6 0 -30 c0 -26 7 -33 55 -57 30 -15 64 -27 75
-28 45 -1 115 -67 115 -110 0 -14 34 -60 88 -118 23 -26 42 -50 42 -53 0 -12
121 -99 172 -125 26 -13 57 -24 68 -24 11 0 31 -6 43 -14 30 -19 138 -39 219
-40 56 0 71 3 91 22 13 12 29 22 35 22 6 0 38 12 69 27 96 44 99 45 134 52
l34 7 3 93 c2 77 0 97 -14 112 -21 23 -76 25 -94 4 -7 -8 -19 -15 -26 -15 -7
0 -47 -16 -88 -35 -72 -34 -80 -35 -190 -35 -131 0 -197 18 -250 68 -17 16
-43 32 -57 36 -15 3 -46 22 -69 41 -23 19 -47 35 -54 35 -7 0 -41 30 -75 67
-71 76 -121 114 -148 111 -10 -1 -54 -4 -98 -7z"/>
<path d="M8424 14405 c-17 -8 -89 -74 -160 -148 -138 -143 -195 -186 -259
-198 -95 -18 -134 -32 -156 -55 -24 -25 -24 -26 -4 -41 21 -15 88 -11 110 7 5
4 42 10 80 13 104 7 219 31 251 51 30 19 100 89 194 195 40 45 72 70 119 91
35 17 71 30 80 30 9 0 27 9 41 19 20 16 22 21 11 35 -11 13 -36 16 -145 15
-86 0 -141 -5 -162 -14z"/>
<path d="M10680 14052 c0 -28 127 -144 213 -196 43 -25 82 -46 87 -46 5 0 38
-16 73 -35 35 -19 73 -35 85 -35 11 0 24 -4 27 -10 3 -5 14 -10 24 -10 10 0
30 -9 44 -20 14 -11 32 -20 40 -20 7 0 22 -9 33 -21 10 -12 35 -30 54 -40 60
-33 125 -85 137 -110 6 -13 17 -44 24 -69 7 -25 18 -52 25 -60 10 -13 47 -102
68 -162 3 -10 11 -18 19 -18 21 0 37 61 37 146 0 56 5 86 16 102 12 17 14 37
10 80 -10 107 -22 177 -35 202 -19 36 -62 80 -78 80 -8 0 -36 20 -62 45 -26
25 -51 45 -56 45 -4 0 -24 14 -45 30 l-38 30 -206 0 c-167 0 -212 3 -243 16
-87 37 -142 65 -153 79 -8 9 -30 15 -56 15 -36 0 -44 -3 -44 -18z"/>
<path d="M12160 14028 c-12 -24 -20 -63 -20 -92 -1 -28 -7 -62 -15 -76 -8 -14
-15 -52 -15 -85 0 -33 -7 -71 -15 -85 -8 -14 -14 -49 -15 -78 0 -30 -7 -63
-16 -76 -12 -20 -14 -49 -10 -173 6 -161 8 -274 5 -325 -1 -18 -1 -55 1 -83 3
-59 -7 -144 -19 -159 -5 -6 -11 -63 -14 -127 -3 -63 -11 -128 -17 -143 -5 -15
-10 -106 -10 -204 -1 -140 -4 -181 -15 -196 -12 -15 -15 -52 -15 -156 l0 -136
-45 -88 c-25 -49 -45 -99 -45 -112 0 -12 -4 -26 -10 -29 -5 -3 -10 -14 -10
-24 0 -10 -6 -24 -13 -30 -8 -6 -19 -30 -26 -53 -7 -24 -25 -70 -41 -103 -37
-78 -38 -80 -46 -215 -8 -136 -8 -140 1 -295 7 -111 6 -123 -14 -160 -16 -31
-21 -57 -21 -116 0 -42 -7 -95 -15 -119 -8 -23 -15 -55 -15 -70 0 -15 -8 -38
-19 -51 -10 -13 -48 -84 -86 -156 -37 -73 -73 -133 -80 -133 -7 0 -31 -15 -54
-32 -81 -65 -97 -76 -148 -102 -29 -14 -64 -26 -78 -26 -14 0 -42 -7 -62 -15
-19 -8 -58 -15 -86 -15 -31 0 -57 -6 -67 -15 -9 -8 -43 -20 -76 -26 -37 -7
-68 -19 -84 -34 -14 -13 -37 -27 -53 -30 -15 -4 -30 -11 -33 -16 -3 -5 -24 -9
-47 -9 -23 -1 -53 -7 -67 -15 -14 -8 -48 -14 -76 -15 -28 0 -59 -6 -70 -15
-12 -9 -42 -14 -80 -15 -42 0 -65 -5 -74 -15 -10 -12 -43 -15 -174 -15 -105 0
-166 4 -173 11 -7 7 -64 12 -145 14 -144 3 -219 16 -258 43 -14 10 -45 24 -70
31 -89 25 -214 93 -272 148 -31 29 -62 53 -69 53 -7 0 -52 38 -100 85 -47 47
-93 85 -101 85 -7 0 -38 25 -68 56 -30 30 -68 63 -85 71 -16 9 -48 31 -70 50
-120 102 -147 123 -160 123 -7 0 -24 15 -37 33 -25 35 -117 127 -227 227 -40
36 -79 79 -87 95 -7 17 -120 136 -250 265 -130 129 -253 260 -274 291 -21 30
-54 68 -74 83 -20 15 -43 42 -50 61 -8 18 -24 39 -36 45 -59 32 -144 121 -193
204 -18 30 -85 100 -103 107 -6 2 -30 31 -56 64 -55 72 -95 111 -105 102 -4
-4 -1 -13 5 -19 7 -7 12 -21 12 -33 0 -12 25 -45 61 -80 33 -33 64 -67 68 -75
14 -33 114 -180 121 -180 4 0 24 -24 43 -52 19 -29 49 -63 66 -76 17 -12 31
-30 31 -38 0 -17 49 -93 74 -113 8 -7 24 -31 36 -54 12 -23 37 -55 56 -70 19
-16 49 -52 69 -80 19 -29 62 -78 95 -111 33 -32 60 -63 60 -69 0 -17 262 -276
306 -302 23 -13 73 -58 111 -98 42 -46 89 -85 121 -101 37 -19 58 -37 69 -61
10 -20 28 -38 44 -44 15 -5 34 -22 42 -38 18 -33 58 -72 107 -101 19 -12 48
-37 63 -57 15 -19 34 -35 41 -35 33 0 96 -77 96 -117 0 -8 11 -13 29 -13 38 0
89 -43 93 -78 3 -22 9 -28 41 -33 42 -7 92 -49 101 -85 4 -14 14 -24 24 -24
10 0 37 -16 59 -35 23 -20 69 -44 109 -57 67 -21 110 -44 166 -87 14 -12 33
-21 41 -21 22 0 76 -30 86 -47 5 -11 31 -18 77 -23 38 -4 82 -12 97 -18 19 -8
106 -12 255 -12 189 0 231 3 250 15 16 12 34 14 72 9 40 -5 60 -2 102 16 38
16 64 21 100 18 44 -5 53 -2 91 28 23 19 51 34 62 34 11 0 42 16 69 35 27 19
57 35 65 35 9 0 25 7 35 15 15 11 49 15 133 15 114 0 203 14 203 32 0 16 84
48 128 48 30 0 42 4 42 15 0 8 25 29 56 47 40 24 63 45 79 76 30 57 54 82 77
82 12 0 18 7 18 24 0 29 85 146 106 146 8 0 23 20 34 44 10 24 23 47 30 51 18
11 40 -15 40 -47 0 -16 11 -51 25 -78 14 -27 25 -63 25 -81 0 -21 8 -37 25
-51 14 -11 34 -36 44 -56 24 -46 46 -66 94 -83 20 -7 37 -16 37 -20 0 -21 53
-67 82 -72 18 -3 72 -19 121 -36 48 -17 102 -30 120 -30 17 1 56 -4 86 -10 29
-6 91 -11 136 -11 70 0 87 -3 110 -22 24 -19 43 -22 137 -26 79 -2 122 -9 155
-23 24 -10 64 -19 87 -19 30 0 48 -6 61 -20 10 -11 25 -20 33 -20 8 0 40 -22
71 -48 31 -27 73 -59 95 -72 21 -12 50 -34 64 -46 14 -13 32 -24 42 -24 9 0
25 -7 36 -15 10 -8 38 -15 61 -15 37 0 42 -3 52 -30 11 -33 24 -36 61 -15 36
21 145 19 181 -2 27 -16 31 -16 58 0 33 20 140 23 172 6 17 -9 28 -6 60 15 21
14 51 26 66 26 16 1 39 7 53 15 14 8 36 14 49 15 15 0 48 24 95 70 40 39 78
70 84 70 7 0 38 27 70 60 80 84 94 98 140 141 44 41 112 81 152 89 17 4 26 13
28 30 4 28 38 69 66 79 10 4 24 23 30 41 11 32 73 88 124 110 12 5 22 15 22
23 0 20 63 77 86 77 27 0 64 28 64 49 0 17 35 54 76 82 12 8 40 38 63 67 29
36 49 52 65 52 18 0 30 13 56 64 28 57 36 65 64 68 27 3 31 7 34 38 4 40 33
82 113 161 44 43 69 81 108 162 28 59 63 121 79 139 34 40 79 114 113 185 13
28 36 59 52 68 22 13 27 23 27 56 0 28 18 74 65 168 36 70 65 135 65 143 0 21
73 102 114 128 23 14 36 30 40 53 5 24 18 40 56 64 33 22 55 45 65 70 19 45
50 79 88 99 17 9 27 23 27 37 0 24 41 69 73 80 9 4 17 14 17 24 1 42 87 233
135 298 12 17 31 48 42 70 12 22 30 49 42 59 12 11 26 38 32 60 6 23 26 62 45
87 19 26 34 57 34 70 0 24 43 136 74 194 9 17 16 36 16 44 0 8 9 34 21 58 15
32 19 52 14 76 -12 55 -4 197 24 406 6 46 9 92 6 103 -4 10 -8 41 -10 68 -4
56 -10 70 -29 70 -21 0 -43 -32 -49 -70 -5 -38 -22 -90 -43 -132 -9 -17 -14
-62 -14 -125 0 -77 -5 -108 -21 -142 -16 -36 -19 -63 -18 -130 2 -86 -2 -102
-48 -186 -15 -26 -39 -84 -48 -112 -3 -13 -11 -23 -16 -23 -5 0 -9 -12 -9 -27
0 -16 -25 -77 -55 -138 -30 -60 -55 -115 -55 -122 0 -6 -25 -39 -55 -71 -30
-33 -55 -67 -55 -75 0 -8 -14 -28 -31 -44 -17 -15 -40 -46 -51 -68 -11 -22
-40 -63 -64 -92 -24 -28 -44 -55 -44 -60 0 -5 -12 -20 -26 -34 -15 -13 -41
-47 -59 -74 -18 -28 -41 -57 -50 -65 -9 -7 -25 -30 -36 -49 -11 -20 -35 -56
-54 -81 -20 -25 -44 -65 -56 -90 -11 -25 -24 -52 -30 -60 -5 -8 -27 -53 -50
-100 -36 -77 -98 -201 -118 -240 -5 -8 -55 -112 -112 -230 -137 -285 -130
-273 -169 -292 -19 -10 -59 -42 -89 -72 -31 -29 -66 -57 -77 -60 -12 -4 -47
-31 -79 -61 -31 -30 -61 -55 -67 -55 -5 0 -42 -31 -83 -70 -41 -38 -80 -70
-88 -70 -16 0 -177 -164 -177 -180 0 -6 -22 -35 -49 -63 -27 -29 -60 -75 -74
-103 -16 -32 -40 -60 -62 -74 -19 -12 -35 -26 -35 -32 0 -6 -18 -33 -40 -60
-22 -28 -40 -55 -40 -59 0 -5 -4 -9 -10 -9 -19 0 -120 -71 -131 -93 -13 -26
-85 -97 -98 -97 -6 0 -31 -18 -56 -40 -25 -22 -52 -40 -60 -40 -8 0 -36 -13
-62 -28 -26 -16 -115 -62 -198 -103 -138 -68 -155 -75 -235 -82 -103 -9 -128
-9 -250 -1 -85 5 -98 9 -125 33 -44 41 -85 67 -128 81 -21 6 -59 28 -84 47
-69 52 -211 120 -268 128 -27 4 -68 15 -90 25 -22 11 -69 27 -105 36 -36 10
-72 23 -81 31 -8 7 -30 13 -47 13 -17 0 -34 5 -37 10 -3 6 -13 10 -22 10 -9 0
-35 8 -57 18 -52 24 -137 52 -155 52 -22 0 -114 50 -144 78 -16 15 -37 43 -47
62 -10 19 -41 57 -69 85 -45 44 -61 66 -99 142 -19 37 -45 119 -50 156 -2 20
-8 40 -13 43 -5 3 -9 28 -9 55 0 30 -8 65 -20 89 -11 22 -20 48 -20 58 0 11
-7 36 -15 55 -8 20 -15 52 -15 70 0 19 -7 40 -15 47 -8 7 -15 23 -15 36 0 13
-7 43 -15 67 -19 55 -24 332 -6 350 6 6 11 23 11 37 0 14 9 43 20 65 11 22 20
58 20 80 0 23 7 50 15 61 8 10 15 31 15 46 0 15 5 30 10 33 6 3 10 19 10 34 0
15 5 32 12 39 7 7 14 65 17 156 4 96 10 149 19 158 8 8 12 55 12 160 0 113 4
156 15 178 13 24 15 109 15 560 0 338 3 538 10 550 5 10 10 81 10 157 0 109 5
150 20 196 26 78 14 187 -21 187 -5 0 -18 -19 -29 -42z"/>
<path d="M9200 13829 c0 -17 -5 -40 -12 -52 -7 -12 -15 -48 -19 -80 -5 -40
-23 -91 -59 -163 -44 -88 -58 -108 -89 -123 -20 -11 -65 -49 -101 -86 -36 -36
-78 -73 -94 -82 -16 -8 -77 -62 -136 -119 -60 -57 -116 -104 -124 -104 -9 0
-34 -16 -56 -36 -30 -28 -61 -80 -130 -220 -49 -101 -90 -188 -90 -194 0 -6
-7 -22 -16 -35 -12 -18 -14 -40 -10 -92 8 -109 9 -305 1 -344 -5 -26 -3 -38 9
-48 9 -8 16 -19 16 -25 0 -7 9 -31 20 -54 11 -23 25 -54 30 -67 5 -14 17 -28
26 -32 34 -13 39 13 40 200 0 153 3 188 18 222 23 51 30 65 44 90 6 11 23 45
37 75 51 106 122 205 155 215 9 3 60 48 112 100 53 52 103 95 112 95 22 0 156
136 172 176 8 18 18 35 24 39 5 3 10 14 10 23 0 15 63 134 125 237 14 22 25
54 25 70 0 17 9 50 20 74 27 58 27 163 1 229 -11 26 -22 69 -26 95 -8 54 -35
67 -35 16z"/>
<path d="M13400 13569 c-30 -16 -60 -18 -219 -19 l-184 0 -69 -62 c-38 -35
-108 -102 -156 -149 -48 -47 -105 -96 -127 -109 -22 -14 -54 -39 -70 -58 -33
-35 -125 -212 -145 -277 -7 -22 -20 -56 -30 -75 -82 -164 -96 -208 -70 -211 6
-1 14 -2 19 -3 12 -1 200 178 222 211 9 13 60 64 114 114 100 92 174 139 219
139 14 0 28 5 31 10 3 6 14 10 23 10 10 0 35 9 57 20 22 11 50 20 63 20 13 0
33 5 45 12 39 22 91 38 125 38 18 0 40 4 50 9 9 6 33 12 53 16 19 3 62 23 95
45 32 22 82 56 109 74 28 19 57 41 64 50 7 9 18 16 24 16 16 0 138 112 150
138 10 21 8 27 -12 43 -21 17 -41 19 -185 18 -136 -1 -166 -4 -196 -20z"/>
<path d="M9730 13395 c-14 -8 -43 -15 -65 -15 -22 0 -51 -7 -65 -15 -17 -10
-57 -14 -122 -15 -56 0 -100 -4 -103 -10 -8 -13 11 -43 63 -96 l40 -42 90 3
c95 3 117 12 247 101 27 19 55 34 62 34 16 0 17 42 1 58 -17 17 -117 14 -148
-3z"/>
<path d="M13697 13283 c-4 -3 -7 -26 -7 -50 0 -43 1 -45 46 -64 25 -11 48 -27
50 -34 8 -20 34 -27 50 -14 10 8 25 7 61 -5 25 -9 60 -16 77 -16 17 -1 42 -7
56 -15 14 -8 41 -14 61 -15 20 0 50 -7 65 -15 16 -8 48 -15 70 -15 26 0 51 -7
67 -20 44 -35 108 -18 107 28 -1 24 -49 77 -90 97 -19 9 -54 35 -76 57 l-41
40 -197 0 c-190 0 -197 0 -231 24 -36 24 -56 29 -68 17z"/>
<path d="M11087 13086 c-12 -13 -35 -45 -52 -72 -16 -27 -44 -65 -61 -84 -18
-19 -39 -53 -48 -74 -9 -21 -34 -58 -55 -81 -21 -23 -42 -51 -45 -63 -4 -11
-18 -28 -32 -37 -13 -9 -35 -37 -47 -63 -16 -34 -33 -52 -62 -67 -22 -11 -42
-22 -45 -25 -11 -12 -116 -77 -143 -88 -15 -7 -48 -12 -73 -12 -26 0 -62 -9
-86 -21 -25 -13 -49 -18 -64 -15 -14 4 -34 1 -45 -5 -16 -8 -28 -8 -46 0 -20
9 -32 7 -71 -14 l-47 -25 -320 0 c-323 1 -332 1 -505 42 -25 6 -63 14 -85 18
-22 3 -54 14 -72 23 -18 9 -50 17 -73 17 -22 0 -51 6 -63 14 -12 7 -50 16 -85
20 -75 7 -85 -4 -55 -61 11 -21 28 -54 38 -73 10 -19 35 -54 57 -77 21 -24 38
-47 38 -52 0 -14 107 -119 137 -135 16 -8 52 -37 82 -65 30 -28 68 -57 85 -65
17 -8 51 -36 76 -61 57 -60 178 -141 233 -157 23 -6 51 -18 62 -25 11 -7 35
-13 54 -13 19 0 42 -7 52 -16 10 -9 32 -19 51 -24 18 -5 49 -14 68 -21 207
-72 189 -69 396 -69 151 0 198 3 220 15 16 8 36 15 44 15 8 0 24 7 34 15 11 8
34 15 51 15 21 0 48 12 75 33 24 17 50 37 59 42 9 6 20 16 24 23 4 7 25 19 45
28 40 16 92 61 92 79 0 6 16 27 36 46 38 36 64 84 117 209 24 58 33 96 38 170
3 52 11 113 17 135 7 22 12 88 12 146 0 81 4 114 18 140 12 25 19 71 24 174 4
77 10 159 13 181 12 75 -25 107 -68 60z"/>
<path d="M10074 13018 c-18 -18 -39 -46 -48 -63 -9 -16 -28 -45 -41 -64 -23
-31 -25 -43 -25 -142 0 -126 5 -136 111 -208 l63 -43 66 7 c36 4 79 7 95 6 87
-4 172 97 98 115 -56 14 -101 44 -166 113 l-66 71 -3 117 c-3 118 -3 118 -28
121 -18 2 -34 -7 -56 -30z"/>
<path d="M15429 12983 c-7 -20 -7 -39 2 -68 6 -22 15 -83 19 -135 4 -52 16
-122 27 -155 13 -42 18 -83 16 -134 -2 -57 2 -82 17 -112 17 -32 20 -59 20
-161 0 -90 -4 -131 -15 -152 -12 -23 -16 -72 -16 -240 -1 -158 -4 -219 -15
-245 -14 -34 -19 -185 -8 -228 4 -16 14 -23 29 -23 19 0 30 15 65 88 58 121
81 164 96 183 8 8 14 23 14 31 0 9 7 21 15 28 8 6 33 43 55 82 29 50 40 81 40
111 1 23 7 53 15 67 10 18 14 59 15 141 0 80 5 128 15 152 21 50 21 255 0 283
-8 10 -15 33 -15 50 0 17 -7 37 -15 44 -8 7 -15 21 -15 32 0 11 -6 34 -13 51
-8 18 -20 50 -27 72 -7 22 -23 55 -34 73 -27 43 -205 177 -245 185 -28 6 -33
3 -42 -20z"/>
<path d="M13566 12848 c-11 -6 -33 -14 -50 -19 -96 -23 -252 -98 -290 -138
-17 -17 -34 -31 -39 -31 -10 0 -80 -52 -85 -63 -2 -4 -21 -16 -42 -27 -21 -11
-54 -39 -73 -62 -32 -39 -157 -286 -170 -333 -3 -11 -15 -45 -27 -75 -12 -30
-25 -73 -29 -95 -8 -44 -25 -99 -49 -157 -8 -20 -12 -49 -9 -65 9 -54 56 -170
75 -189 19 -20 224 -19 260 0 15 8 74 29 132 46 58 17 118 38 133 46 40 20
323 20 369 0 51 -22 121 -55 138 -65 23 -13 61 -28 105 -42 43 -13 150 -65
175 -84 8 -7 32 -15 53 -19 25 -5 43 -16 54 -34 9 -15 32 -44 51 -66 19 -21
39 -50 46 -65 42 -95 141 -196 217 -220 51 -17 54 -17 102 3 56 24 89 52 137
119 19 26 51 69 71 95 43 57 69 108 69 137 0 11 4 25 8 31 17 18 61 180 60
219 0 22 3 133 7 247 7 180 6 213 -8 245 -8 21 -18 67 -20 103 -6 78 -25 118
-89 188 -26 30 -48 60 -48 68 0 23 -67 44 -141 44 -63 0 -79 -5 -181 -54 -179
-86 -231 -99 -273 -72 -13 9 -40 16 -60 16 -29 0 -45 10 -95 58 -33 31 -70 76
-81 99 -11 23 -45 62 -75 88 -29 26 -54 54 -54 64 0 28 -22 41 -71 41 -29 0
-51 6 -59 15 -15 18 -115 20 -144 3z"/>
<path d="M11127 12103 c-13 -12 -7 -168 8 -216 9 -30 15 -99 17 -181 l2 -132
-64 -130 c-44 -87 -81 -146 -114 -181 l-49 -53 -123 0 c-123 0 -123 0 -157
-30 -19 -16 -41 -30 -48 -30 -8 0 -25 -9 -39 -20 -14 -11 -39 -20 -57 -20 -17
0 -35 -4 -38 -10 -3 -5 -25 -10 -48 -10 -25 0 -54 -8 -72 -20 -41 -27 -118
-27 -152 0 -17 13 -41 20 -70 20 -59 0 -110 28 -191 105 -37 36 -70 65 -74 65
-5 0 -16 8 -26 18 -87 87 -166 138 -267 173 -48 16 -50 16 -59 -2 -7 -15 -3
-26 17 -47 15 -16 27 -32 27 -38 0 -5 12 -25 28 -44 15 -19 36 -53 47 -75 11
-22 25 -44 32 -50 18 -15 81 -106 97 -140 23 -50 85 -100 191 -154 55 -29 120
-63 144 -77 41 -22 55 -24 176 -24 145 0 168 6 337 91 75 38 81 39 177 39 77
0 110 4 146 20 52 22 149 110 191 173 15 23 40 56 55 72 15 17 30 44 34 62 3
18 14 49 24 70 33 69 43 331 15 384 -8 15 -14 54 -14 86 -1 32 -7 69 -15 83
-8 14 -14 48 -15 76 0 29 -8 68 -20 92 -11 22 -20 46 -20 52 0 11 -23 14 -33
3z"/>
<path d="M13597 11287 c-3 -9 -24 -25 -46 -36 -21 -11 -54 -34 -73 -51 -18
-17 -67 -47 -108 -67 -41 -19 -82 -39 -90 -44 -88 -51 -91 -52 -194 -46 -93 6
-101 8 -131 37 -17 16 -37 30 -45 30 -8 0 -26 12 -41 26 -44 42 -62 27 -54
-43 8 -63 23 -86 70 -110 16 -9 51 -35 77 -59 26 -24 54 -44 63 -44 9 0 30 -7
48 -16 41 -22 154 -20 179 3 12 11 27 14 49 9 26 -5 44 3 127 62 98 68 142 90
198 99 25 4 38 -2 67 -30 21 -19 37 -44 37 -56 0 -12 6 -32 14 -44 8 -12 24
-58 36 -102 12 -44 27 -89 34 -100 20 -30 212 -122 271 -130 99 -12 124 -10
150 15 14 13 25 29 25 35 0 6 13 29 30 51 47 62 37 104 -26 104 -18 0 -35 -4
-38 -9 -16 -25 -60 -21 -131 13 -77 37 -97 58 -115 127 -13 45 -26 81 -41 111
-5 10 -9 23 -9 29 0 6 -15 34 -33 62 -19 29 -44 74 -58 101 -13 26 -33 54 -44
61 -11 7 -59 16 -106 20 -73 6 -87 5 -92 -8z"/>
<path d="M3690 6240 l0 -2420 8095 0 8095 0 0 2420 0 2420 -8095 0 -8095 0 0
-2420z m13185 1280 c3 -5 15 -10 26 -10 25 0 129 -69 129 -85 0 -7 7 -15 15
-19 13 -5 15 -142 15 -1156 0 -1014 -2 -1151 -15 -1156 -8 -4 -15 -12 -15 -19
0 -15 -94 -79 -135 -90 -39 -12 -5981 -12 -6020 0 -41 11 -135 75 -135 90 0 7
-7 15 -15 19 -13 5 -15 142 -15 1156 0 1014 2 1151 15 1156 8 4 15 12 15 19 0
15 104 85 127 85 10 0 25 5 33 10 21 14 5967 14 5975 0z m-7585 -410 c176 -12
260 -30 365 -80 92 -44 182 -124 215 -192 42 -87 44 -252 2 -333 -58 -115
-200 -215 -362 -257 -97 -25 -280 -38 -542 -38 -152 0 -283 -3 -292 -6 -14 -5
-16 -39 -16 -275 l0 -269 -222 2 -223 3 -3 714 c-1 519 1 718 9 727 9 12 95
14 468 14 251 0 521 -5 601 -10z m-1362 -12 c8 -8 12 -49 12 -120 0 -59 -1
-109 -2 -110 -2 -1 -149 -5 -328 -8 l-325 -5 -3 -597 -2 -598 -220 0 -220 0
-2 598 -3 597 -325 5 c-179 3 -326 7 -327 8 -6 5 -2 229 4 235 3 4 394 7 868
7 656 0 864 -3 873 -12z"/>
<path d="M11121 7026 c-8 -9 -10 -209 -9 -732 l3 -719 232 -3 233 -2 2 312 3
313 425 0 425 0 2 -300 c1 -165 2 -306 2 -313 1 -10 51 -12 234 -10 l232 3 3
719 c1 523 -1 723 -9 732 -16 19 -447 20 -454 2 -2 -7 -6 -134 -7 -283 l-3
-270 -425 0 -425 0 -3 275 c-2 204 -5 276 -15 282 -6 4 -107 8 -223 8 -166 0
-214 -3 -223 -14z"/>
<path d="M15202 7032 c-10 -7 -12 -160 -10 -733 l3 -724 199 -3 c138 -2 203 1
212 9 8 7 14 31 14 60 0 27 2 49 4 49 2 0 33 -17 67 -38 66 -38 133 -67 204
-84 63 -16 322 -22 385 -8 213 46 362 145 449 299 73 130 73 360 -1 502 -97
187 -334 299 -631 299 -142 0 -242 -21 -356 -75 -40 -19 -77 -35 -82 -35 -5 0
-9 103 -9 235 0 221 -1 235 -19 245 -23 12 -410 14 -429 2z m876 -612 c165
-39 242 -140 242 -320 0 -139 -48 -225 -158 -281 -39 -20 -65 -25 -151 -27
-120 -4 -161 5 -239 56 -95 62 -124 124 -124 267 0 114 11 152 66 213 76 84
230 122 364 92z"/>
<path d="M13343 6630 l-23 -9 0 -345 c0 -365 6 -431 50 -523 64 -131 237 -202
495 -203 206 0 360 39 478 122 16 11 31 18 34 15 3 -4 7 -27 8 -53 2 -25 7
-50 12 -55 5 -5 96 -8 209 -7 l199 3 3 526 2 527 -22 6 c-29 7 -376 8 -404 0
-21 -5 -21 -11 -27 -339 -5 -303 -7 -337 -25 -376 -32 -70 -96 -109 -218 -135
-66 -13 -90 -14 -144 -5 -82 15 -137 46 -164 91 -20 33 -21 51 -24 396 l-3
362 -22 6 c-35 9 -390 6 -414 -4z"/>
<path d="M8672 6857 c-9 -11 -12 -64 -10 -203 l3 -189 250 -3 c335 -4 422 16
499 111 26 33 30 46 30 93 -1 45 -6 61 -30 90 -33 41 -89 75 -154 93 -28 8
-147 15 -310 18 -229 5 -267 3 -278 -10z"/>
</g>
</svg>
