<?xml version="1.0" standalone="no"?>
<!DOCTYPE svg PUBLIC "-//W3C//DTD SVG 20010904//EN"
 "http://www.w3.org/TR/2001/REC-SVG-20010904/DTD/svg10.dtd">
<svg version="1.0" xmlns="http://www.w3.org/2000/svg"
 width="16.000000pt" height="16.000000pt" viewBox="0 0 16.000000 16.000000"
 preserveAspectRatio="xMidYMid meet">
<metadata>
Created by potrace 1.16, written by Peter Selinger 2001-2019
</metadata>
<g transform="translate(0.000000,16.000000) scale(0.003532,-0.003433)"
fill="#000000" stroke="none">
<path d="M907 4630 c-518 -58 -908 -520 -872 -1035 13 -182 71 -356 165 -495
99 -146 257 -279 416 -351 38 -17 71 -33 72 -34 2 -2 -8 -38 -22 -81 -114
-338 -134 -694 -61 -1049 77 -372 266 -716 541 -987 141 -139 220 -200 377
-294 492 -294 1079 -360 1624 -183 67 22 190 74 273 115 83 42 152 74 154 72
1 -1 14 -23 28 -48 94 -162 294 -259 480 -231 268 40 459 292 419 551 -22 145
-115 288 -228 352 -30 17 -52 33 -51 37 2 3 33 67 70 141 78 157 118 262 153
402 54 210 72 410 56 618 -25 326 -118 622 -278 888 -292 486 -773 820 -1336
927 -220 42 -527 37 -751 -11 -178 -39 -163 -42 -196 49 -92 250 -273 449
-511 562 -146 69 -356 103 -522 85z m394 -709 c16 -19 19 -40 19 -122 0 -91 2
-100 25 -123 24 -25 25 -28 25 -176 l0 -150 -30 0 c-29 0 -30 1 -30 50 l0 50
-314 0 -315 0 -3 -47 c-3 -44 -5 -48 -30 -51 l-28 -3 0 155 c0 140 2 158 19
175 16 16 20 37 23 126 5 155 -17 146 336 143 l284 -3 19 -24z m-1 -1711 l0
-40 -50 0 -50 0 0 -245 0 -245 -60 0 -60 0 0 245 0 245 -45 0 -45 0 0 40 0 40
155 0 155 0 0 -40z m324 19 c26 -20 26 -21 26 -159 0 -138 0 -139 -26 -159
-22 -17 -41 -21 -100 -21 l-74 0 0 -105 0 -105 -60 0 -60 0 0 285 0 285 134 0
c120 0 136 -2 160 -21z m501 9 c35 -16 48 -70 43 -189 -3 -92 -5 -99 -32 -128
l-29 -30 41 -101 c23 -55 42 -103 42 -106 0 -3 -27 -4 -61 -2 l-61 3 -42 104
c-22 56 -45 103 -51 102 -6 -1 -11 -39 -12 -89 -1 -48 -2 -95 -2 -104 -1 -15
-10 -18 -56 -18 l-55 0 0 285 0 285 125 0 c73 0 135 -5 150 -12z m385 -28 l0
-40 -80 0 -80 0 0 -80 0 -80 70 0 70 0 0 -40 0 -40 -70 0 -70 0 0 -85 0 -85
85 0 85 0 0 -40 0 -40 -145 0 -145 0 0 285 0 285 140 0 140 0 0 -40z m335 15
c22 -21 25 -33 25 -95 l0 -71 -57 3 -58 3 -1 40 c-1 64 -2 65 -39 65 l-35 0 0
-205 0 -205 35 0 c19 0 36 5 36 10 1 6 3 15 4 20 1 6 3 26 4 45 l1 35 55 0 55
0 0 -74 c0 -69 -2 -76 -26 -95 -23 -18 -41 -21 -131 -21 -98 0 -105 2 -129 25
l-25 25 3 241 c4 295 -5 279 155 279 97 0 106 -2 128 -25z m205 -260 l0 -285
-60 0 -60 0 0 285 0 285 60 0 60 0 0 -285z m360 245 l0 -40 -50 0 -50 0 0
-245 0 -245 -60 0 -60 0 0 245 0 245 -50 0 -50 0 0 40 0 40 160 0 160 0 0 -40z
m310 0 l0 -40 -80 0 -80 0 0 -80 0 -80 65 0 65 0 0 -40 0 -40 -64 0 -64 0 -4
-69 c-5 -106 -9 -101 88 -101 l84 0 0 -40 0 -40 -145 0 -145 0 0 285 0 285
140 0 140 0 0 -40z m312 26 c24 -18 38 -59 38 -112 l0 -44 -59 0 -60 0 -3 43
c-3 39 -5 42 -35 45 l-33 3 0 -80 0 -81 66 0 c60 0 68 -3 96 -30 l30 -30 -4
-116 c-4 -151 -7 -154 -152 -154 -67 1 -107 5 -118 14 -24 18 -38 59 -38 112
l0 44 59 0 60 0 3 -42 c3 -40 5 -43 33 -43 l30 0 0 80 0 80 -72 5 c-105 7
-108 12 -108 161 0 116 1 121 25 139 21 16 42 20 125 19 66 0 106 -4 117 -13z"/>
<path d="M730 3795 c0 -74 3 -95 14 -95 7 0 16 13 19 29 4 16 16 39 28 50 20
19 35 20 200 20 163 0 180 -2 203 -20 17 -14 26 -30 26 -50 0 -23 5 -29 20
-29 20 0 21 5 18 93 l-3 92 -262 3 -263 2 0 -95z"/>
<path d="M687 3643 c-4 -3 -7 -35 -7 -70 l0 -63 315 0 315 0 0 58 c0 32 -5 63
-12 70 -9 9 -91 12 -308 12 -163 0 -300 -3 -303 -7z"/>
<path d="M1450 2070 l0 -100 39 0 c47 0 51 8 51 100 0 92 -4 100 -51 100 l-39
0 0 -100z"/>
<path d="M1965 2138 c-3 -18 -5 -60 -3 -93 l3 -60 40 0 40 0 0 90 0 90 -37 3
c-35 3 -37 1 -43 -30z"/>
</g>
</svg>
